<svg width="41" height="40" viewBox="0 0 41 40" fill="none" xmlns="http://www.w3.org/2000/svg">
<g clip-path="url(#clip0_1_351)">
<path d="M39.8326 0H9.83267C9.4645 0 9.166 0.298499 9.166 0.666665V10.6666H10.4993V1.33333H39.1659V37.9999C39.1724 38.3505 38.9019 38.6442 38.5519 38.6666C38.4946 38.6666 38.4373 38.6619 38.3799 38.6606C38.2619 38.6573 38.1439 38.6546 38.0279 38.6426C38.0179 38.6426 38.0086 38.6426 37.9986 38.6386C35.8213 38.4006 34.1014 36.6823 33.8613 34.5053C33.8613 34.4959 33.858 34.4859 33.8566 34.4766C33.8405 34.3182 33.8325 34.1591 33.8326 33.9999V32.6666C33.8326 32.2984 33.5341 31.9999 33.166 31.9999H10.4993V20H9.166V31.9999H3.83268C3.46452 31.9999 3.16602 32.2984 3.16602 32.6666V33.9999C3.16968 37.3121 5.85384 39.9963 9.166 39.9999H38.5659C39.6478 39.9716 40.5076 39.0821 40.4993 37.9999V0.666665C40.4993 0.298499 40.2008 0 39.8326 0ZM9.166 38.6666C6.58993 38.6637 4.50226 36.576 4.49935 33.9999V33.3333H32.4993V33.9999C32.5002 34.2198 32.5129 34.4394 32.5373 34.6579C32.5433 34.7159 32.5546 34.7719 32.5626 34.8293C32.5846 34.9906 32.6113 35.1513 32.6466 35.3093C32.6586 35.3646 32.674 35.4193 32.688 35.4746C32.7286 35.6353 32.7746 35.7933 32.828 35.9493C32.8433 35.9939 32.8593 36.0379 32.876 36.0826C32.9366 36.2479 33.0053 36.4093 33.0806 36.5686C33.0966 36.6013 33.1113 36.6353 33.1273 36.6653C33.2109 36.8342 33.3026 36.9983 33.4026 37.1579C33.416 37.1793 33.428 37.2013 33.4413 37.2246C33.55 37.3948 33.6673 37.5595 33.7926 37.7179L33.814 37.7466C33.9595 37.9293 34.1153 38.1036 34.2806 38.2686C34.4242 38.4108 34.573 38.5442 34.7273 38.6686L9.166 38.6666Z" fill="#4985FF"/>
<path d="M22.5 18.6667C22.6768 18.6667 22.8463 18.5963 22.9713 18.4713L25.6379 15.8047C25.8982 15.5443 25.8982 15.1223 25.6379 14.862L22.9713 12.1953C22.8463 12.0703 22.6768 12 22.5 12H3.83333C1.99241 12 0.5 13.4924 0.5 15.3333C0.5 17.1742 1.99241 18.6667 3.83333 18.6667H22.5ZM22.328 13.4373L24.2239 15.3333L22.328 17.2293L21.854 15.3333L22.328 13.4373ZM5.83332 13.3333H20.98L20.6466 14.6667H7.16665V16H20.6466L20.98 17.3333H5.83332V13.3333ZM1.83333 15.3333C1.83333 14.2287 2.72875 13.3333 3.83333 13.3333H4.49999V17.3333H3.83333C2.72875 17.3333 1.83333 16.4379 1.83333 15.3333Z" fill="#4985FF"/>
<path d="M15.8325 28.6666H35.8325C36.2007 28.6666 36.4992 28.3681 36.4992 27.9999V7.99999C36.4991 7.63183 36.2006 7.33341 35.8323 7.3335C35.6556 7.3335 35.4862 7.40375 35.3612 7.52866L15.3612 27.5286C15.1009 27.789 15.101 28.2111 15.3614 28.4714C15.4864 28.5964 15.6558 28.6666 15.8325 28.6666ZM35.1658 9.60932V11.3333H33.8325V12.6666H35.1658V14H33.8325V15.3333H35.1658V16.6666H33.8325V18H35.1658V19.3333H33.8325V20.6666H35.1658V22H33.8325V23.3333H35.1658V24.6666H33.8325V25.9999H35.1658V27.3333H33.8325V25.9999H32.4992V27.3333H31.1658V25.9999H29.8325V27.3333H28.4992V25.9999H27.1659V27.3333H25.8325V25.9999H24.4992V27.3333H23.1659V25.9999H21.8325V27.3333H20.4992V25.9999H19.1659V27.3333H17.4419L35.1658 9.60932Z" fill="#4985FF"/>
<path d="M25.4907 24.6667H31.8341C32.2022 24.6667 32.5007 24.3682 32.5007 24V17.6567C32.5007 17.2886 32.2022 16.9902 31.8339 16.9902C31.6572 16.9902 31.4877 17.0605 31.3627 17.1854L25.0194 23.5287C24.7591 23.7891 24.7592 24.2112 25.0196 24.4715C25.1446 24.5965 25.314 24.6667 25.4907 24.6667ZM31.1674 19.2667V23.3334H27.1007L31.1674 19.2667Z" fill="#4985FF"/>
<path d="M31.1673 4H17.834V5.33333H31.1673V4Z" fill="#4985FF"/>
<path d="M33.1673 6.6665H15.834V7.99983H33.1673V6.6665Z" fill="#4985FF"/>
<path d="M15.834 20.6665H11.834V21.9998H15.834V20.6665Z" fill="#4985FF"/>
<path d="M14.5006 23.3335H11.834V24.6668H14.5006V23.3335Z" fill="#4985FF"/>
</g>
<defs>
<clipPath id="clip0_1_351">
<rect width="40" height="40" fill="white" transform="translate(0.5)"/>
</clipPath>
</defs>
</svg>
